<svg width="29" height="30" viewBox="0 0 29 30" fill="none" xmlns="http://www.w3.org/2000/svg">
<g filter="url(#filter0_d_74_81)">
<path d="M1 1H1.37789C2.04625 1 2.38043 1 2.65398 1.12278C2.89369 1.23256 3.09955 1.40733 3.2462 1.62978C3.4154 1.88111 3.47603 2.21767 3.59589 2.88789L6.64017 19.7778H21.3356C21.9744 19.7778 22.2945 19.7778 22.5595 19.6622C22.7931 19.5598 22.9953 19.3946 23.1447 19.1841C23.3139 18.9458 23.3858 18.628 23.5296 17.991V17.9867L25.7434 8.16444C25.9606 7.19811 26.0705 6.71278 25.9507 6.33289C25.8448 5.99976 25.6243 5.71742 25.3303 5.53844C24.9975 5.33333 24.5139 5.33333 23.5466 5.33333H4.5251M22.1506 27C21.7767 27 21.418 26.8478 21.1536 26.5769C20.8891 26.306 20.7406 25.9386 20.7406 25.5556C20.7406 25.1725 20.8891 24.8051 21.1536 24.5342C21.418 24.2633 21.7767 24.1111 22.1506 24.1111C22.5246 24.1111 22.8832 24.2633 23.1477 24.5342C23.4121 24.8051 23.5607 25.1725 23.5607 25.5556C23.5607 25.9386 23.4121 26.306 23.1477 26.5769C22.8832 26.8478 22.5246 27 22.1506 27ZM8.05021 27C7.67624 27 7.31759 26.8478 7.05316 26.5769C6.78872 26.306 6.64017 25.9386 6.64017 25.5556C6.64017 25.1725 6.78872 24.8051 7.05316 24.5342C7.31759 24.2633 7.67624 24.1111 8.05021 24.1111C8.42417 24.1111 8.78282 24.2633 9.04726 24.5342C9.31169 24.8051 9.46025 25.1725 9.46025 25.5556C9.46025 25.9386 9.31169 26.306 9.04726 26.5769C8.78282 26.8478 8.42417 27 8.05021 27Z" stroke="white" stroke-linecap="round" stroke-linejoin="round" shape-rendering="crispEdges"/>
</g>
<defs>
<filter id="filter0_d_74_81" x="0.5" y="0.5" width="28" height="29" filterUnits="userSpaceOnUse" color-interpolation-filters="sRGB">
<feFlood flood-opacity="0" result="BackgroundImageFix"/>
<feColorMatrix in="SourceAlpha" type="matrix" values="0 0 0 0 0 0 0 0 0 0 0 0 0 0 0 0 0 0 127 0" result="hardAlpha"/>
<feOffset dx="1" dy="1"/>
<feGaussianBlur stdDeviation="0.5"/>
<feComposite in2="hardAlpha" operator="out"/>
<feColorMatrix type="matrix" values="0 0 0 0 0 0 0 0 0 0 0 0 0 0 0 0 0 0 0.25 0"/>
<feBlend mode="normal" in2="BackgroundImageFix" result="effect1_dropShadow_74_81"/>
<feBlend mode="normal" in="SourceGraphic" in2="effect1_dropShadow_74_81" result="shape"/>
</filter>
</defs>
</svg>
