<svg width="28" height="28" viewBox="0 0 28 28" fill="none" xmlns="http://www.w3.org/2000/svg">
<g filter="url(#filter0_d_74_79)">
<path d="M21.5714 23.2857C21.5714 23.7404 21.752 24.1764 22.0735 24.4979C22.395 24.8194 22.8311 25 23.2857 25C23.7404 25 24.1764 24.8194 24.4979 24.4979C24.8194 24.1764 25 23.7404 25 23.2857C25 22.8311 24.8194 22.395 24.4979 22.0735C24.1764 21.752 23.7404 21.5714 23.2857 21.5714C22.8311 21.5714 22.395 21.752 22.0735 22.0735C21.752 22.395 21.5714 22.8311 21.5714 23.2857ZM11.2857 23.2857C11.2857 23.7404 11.4663 24.1764 11.7878 24.4979C12.1093 24.8194 12.5453 25 13 25C13.4547 25 13.8907 24.8194 14.2122 24.4979C14.5337 24.1764 14.7143 23.7404 14.7143 23.2857C14.7143 22.8311 14.5337 22.395 14.2122 22.0735C13.8907 21.752 13.4547 21.5714 13 21.5714C12.5453 21.5714 12.1093 21.752 11.7878 22.0735C11.4663 22.395 11.2857 22.8311 11.2857 23.2857ZM1 23.2857C1 23.7404 1.18061 24.1764 1.5021 24.4979C1.82359 24.8194 2.25963 25 2.71429 25C3.16894 25 3.60498 24.8194 3.92647 24.4979C4.24796 24.1764 4.42857 23.7404 4.42857 23.2857C4.42857 22.8311 4.24796 22.395 3.92647 22.0735C3.60498 21.752 3.16894 21.5714 2.71429 21.5714C2.25963 21.5714 1.82359 21.752 1.5021 22.0735C1.18061 22.395 1 22.8311 1 23.2857ZM21.5714 13C21.5714 13.4547 21.752 13.8907 22.0735 14.2122C22.395 14.5337 22.8311 14.7143 23.2857 14.7143C23.7404 14.7143 24.1764 14.5337 24.4979 14.2122C24.8194 13.8907 25 13.4547 25 13C25 12.5453 24.8194 12.1093 24.4979 11.7878C24.1764 11.4663 23.7404 11.2857 23.2857 11.2857C22.8311 11.2857 22.395 11.4663 22.0735 11.7878C21.752 12.1093 21.5714 12.5453 21.5714 13ZM11.2857 13C11.2857 13.4547 11.4663 13.8907 11.7878 14.2122C12.1093 14.5337 12.5453 14.7143 13 14.7143C13.4547 14.7143 13.8907 14.5337 14.2122 14.2122C14.5337 13.8907 14.7143 13.4547 14.7143 13C14.7143 12.5453 14.5337 12.1093 14.2122 11.7878C13.8907 11.4663 13.4547 11.2857 13 11.2857C12.5453 11.2857 12.1093 11.4663 11.7878 11.7878C11.4663 12.1093 11.2857 12.5453 11.2857 13ZM1 13C1 13.4547 1.18061 13.8907 1.5021 14.2122C1.82359 14.5337 2.25963 14.7143 2.71429 14.7143C3.16894 14.7143 3.60498 14.5337 3.92647 14.2122C4.24796 13.8907 4.42857 13.4547 4.42857 13C4.42857 12.5453 4.24796 12.1093 3.92647 11.7878C3.60498 11.4663 3.16894 11.2857 2.71429 11.2857C2.25963 11.2857 1.82359 11.4663 1.5021 11.7878C1.18061 12.1093 1 12.5453 1 13ZM21.5714 2.71429C21.5714 3.16894 21.752 3.60498 22.0735 3.92647C22.395 4.24796 22.8311 4.42857 23.2857 4.42857C23.7404 4.42857 24.1764 4.24796 24.4979 3.92647C24.8194 3.60498 25 3.16894 25 2.71429C25 2.25963 24.8194 1.82359 24.4979 1.5021C24.1764 1.18061 23.7404 1 23.2857 1C22.8311 1 22.395 1.18061 22.0735 1.5021C21.752 1.82359 21.5714 2.25963 21.5714 2.71429ZM11.2857 2.71429C11.2857 3.16894 11.4663 3.60498 11.7878 3.92647C12.1093 4.24796 12.5453 4.42857 13 4.42857C13.4547 4.42857 13.8907 4.24796 14.2122 3.92647C14.5337 3.60498 14.7143 3.16894 14.7143 2.71429C14.7143 2.25963 14.5337 1.82359 14.2122 1.5021C13.8907 1.18061 13.4547 1 13 1C12.5453 1 12.1093 1.18061 11.7878 1.5021C11.4663 1.82359 11.2857 2.25963 11.2857 2.71429ZM1 2.71429C1 3.16894 1.18061 3.60498 1.5021 3.92647C1.82359 4.24796 2.25963 4.42857 2.71429 4.42857C3.16894 4.42857 3.60498 4.24796 3.92647 3.92647C4.24796 3.60498 4.42857 3.16894 4.42857 2.71429C4.42857 2.25963 4.24796 1.82359 3.92647 1.5021C3.60498 1.18061 3.16894 1 2.71429 1C2.25963 1 1.82359 1.18061 1.5021 1.5021C1.18061 1.82359 1 2.25963 1 2.71429Z" stroke="url(#paint0_linear_74_79)" stroke-linecap="round" stroke-linejoin="round" shape-rendering="crispEdges"/>
</g>
<defs>
<filter id="filter0_d_74_79" x="0.5" y="0.5" width="27" height="27" filterUnits="userSpaceOnUse" color-interpolation-filters="sRGB">
<feFlood flood-opacity="0" result="BackgroundImageFix"/>
<feColorMatrix in="SourceAlpha" type="matrix" values="0 0 0 0 0 0 0 0 0 0 0 0 0 0 0 0 0 0 127 0" result="hardAlpha"/>
<feOffset dx="1" dy="1"/>
<feGaussianBlur stdDeviation="0.5"/>
<feComposite in2="hardAlpha" operator="out"/>
<feColorMatrix type="matrix" values="0 0 0 0 0 0 0 0 0 0 0 0 0 0 0 0 0 0 0.25 0"/>
<feBlend mode="normal" in2="BackgroundImageFix" result="effect1_dropShadow_74_79"/>
<feBlend mode="normal" in="SourceGraphic" in2="effect1_dropShadow_74_79" result="shape"/>
</filter>
<linearGradient id="paint0_linear_74_79" x1="13" y1="1" x2="13" y2="25" gradientUnits="userSpaceOnUse">
<stop stop-color="#E35D14"/>
<stop offset="1" stop-color="#F1A737"/>
</linearGradient>
</defs>
</svg>
