<svg width="32" height="34" viewBox="0 0 32 34" fill="none" xmlns="http://www.w3.org/2000/svg">
<g filter="url(#filter0_d_74_78)">
<path d="M28 21.4107V12.9237C28 12.1068 28 11.6983 27.9025 11.3174C27.8162 10.9807 27.6741 10.6615 27.4825 10.3736C27.265 10.0477 26.965 9.77696 26.3605 9.24002L19.1605 2.81505C18.0415 1.81612 17.4805 1.31589 16.8505 1.1262C16.2955 0.957932 15.7045 0.957932 15.148 1.1262C14.518 1.31589 13.96 1.81459 12.841 2.81199L5.6395 9.24002C5.0365 9.77849 4.735 10.0477 4.519 10.372C4.3267 10.6604 4.18415 10.9801 4.0975 11.3174C4 11.6968 4 12.1068 4 12.9237V21.4107C4 22.8365 4 23.5493 4.228 24.1108C4.3786 24.4821 4.59944 24.8195 4.87792 25.1038C5.15639 25.388 5.48705 25.6136 5.851 25.7675C6.403 26 7.102 26 8.5 26C9.898 26 10.597 26 11.149 25.7675C11.513 25.6136 11.8436 25.388 12.1221 25.1038C12.4006 24.8195 12.6214 24.4821 12.772 24.1108C13 23.5493 13 22.8365 13 21.4107V19.881C13 19.0696 13.3161 18.2914 13.8787 17.7176C14.4413 17.1438 15.2044 16.8215 16 16.8215C16.7956 16.8215 17.5587 17.1438 18.1213 17.7176C18.6839 18.2914 19 19.0696 19 19.881V21.4107C19 22.8365 19 23.5493 19.228 24.1108C19.3786 24.4821 19.5994 24.8195 19.8779 25.1038C20.1564 25.388 20.487 25.6136 20.851 25.7675C21.403 26 22.102 26 23.5 26C24.898 26 25.597 26 26.149 25.7675C26.513 25.6136 26.8436 25.388 27.1221 25.1038C27.4006 24.8195 27.6214 24.4821 27.772 24.1108C28 23.5493 28 22.8365 28 21.4107Z" stroke="url(#paint0_linear_74_78)" stroke-linecap="round" stroke-linejoin="round" shape-rendering="crispEdges"/>
</g>
<defs>
<filter id="filter0_d_74_78" x="0" y="0.5" width="32" height="33.5" filterUnits="userSpaceOnUse" color-interpolation-filters="sRGB">
<feFlood flood-opacity="0" result="BackgroundImageFix"/>
<feColorMatrix in="SourceAlpha" type="matrix" values="0 0 0 0 0 0 0 0 0 0 0 0 0 0 0 0 0 0 127 0" result="hardAlpha"/>
<feOffset dy="4"/>
<feGaussianBlur stdDeviation="1.75"/>
<feComposite in2="hardAlpha" operator="out"/>
<feColorMatrix type="matrix" values="0 0 0 0 0 0 0 0 0 0 0 0 0 0 0 0 0 0 0.25 0"/>
<feBlend mode="normal" in2="BackgroundImageFix" result="effect1_dropShadow_74_78"/>
<feBlend mode="normal" in="SourceGraphic" in2="effect1_dropShadow_74_78" result="shape"/>
</filter>
<linearGradient id="paint0_linear_74_78" x1="12.2714" y1="1" x2="28.5336" y2="39.2348" gradientUnits="userSpaceOnUse">
<stop stop-color="#F5F3F1"/>
<stop offset="1" stop-color="#5E5E5D"/>
</linearGradient>
</defs>
</svg>
