<svg width="27" height="27" viewBox="0 0 27 27" fill="none" xmlns="http://www.w3.org/2000/svg">
<path d="M20.7458 23.6833C19.8349 22.6628 18.7184 21.8466 17.4696 21.2884C16.2207 20.7302 14.8679 20.4426 13.5 20.4444C10.6208 20.4444 8.03472 21.6944 6.25417 23.6833M13.5 26C11.8585 26 10.233 25.6767 8.71646 25.0485C7.19989 24.4203 5.8219 23.4996 4.66117 22.3388C3.50043 21.1781 2.57969 19.8001 1.95151 18.2835C1.32332 16.767 1 15.1415 1 13.5C1 11.8585 1.32332 10.233 1.95151 8.71646C2.57969 7.19989 3.50043 5.8219 4.66117 4.66116C5.8219 3.50043 7.19989 2.57969 8.71646 1.95151C10.233 1.32332 11.8585 1 13.5 1C16.8152 1 19.9946 2.31696 22.3388 4.66116C24.683 7.00537 26 10.1848 26 13.5C26 16.8152 24.683 19.9946 22.3388 22.3388C19.9946 24.683 16.8152 26 13.5 26ZM13.5 16.2778C12.9528 16.2778 12.411 16.17 11.9055 15.9606C11.4 15.7512 10.9406 15.4443 10.5537 15.0574C10.1668 14.6705 9.8599 14.2111 9.6505 13.7056C9.44111 13.2001 9.33333 12.6583 9.33333 12.1111C9.33333 11.5639 9.44111 11.0221 9.6505 10.5166C9.8599 10.0111 10.1668 9.55174 10.5537 9.16483C10.9406 8.77792 11.4 8.47101 11.9055 8.26161C12.411 8.05222 12.9528 7.94444 13.5 7.94444C14.6051 7.94444 15.6649 8.38343 16.4463 9.16483C17.2277 9.94623 17.6667 11.006 17.6667 12.1111C17.6667 13.2162 17.2277 14.276 16.4463 15.0574C15.6649 15.8388 14.6051 16.2778 13.5 16.2778Z" stroke="white" stroke-linecap="round" stroke-linejoin="round"/>
<path d="M20.7458 23.6833C19.8349 22.6628 18.7184 21.8466 17.4696 21.2884C16.2207 20.7302 14.8679 20.4426 13.5 20.4444C10.6208 20.4444 8.03472 21.6944 6.25417 23.6833M13.5 26C11.8585 26 10.233 25.6767 8.71646 25.0485C7.19989 24.4203 5.8219 23.4996 4.66117 22.3388C3.50043 21.1781 2.57969 19.8001 1.95151 18.2835C1.32332 16.767 1 15.1415 1 13.5C1 11.8585 1.32332 10.233 1.95151 8.71646C2.57969 7.19989 3.50043 5.8219 4.66117 4.66116C5.8219 3.50043 7.19989 2.57969 8.71646 1.95151C10.233 1.32332 11.8585 1 13.5 1C16.8152 1 19.9946 2.31696 22.3388 4.66116C24.683 7.00537 26 10.1848 26 13.5C26 16.8152 24.683 19.9946 22.3388 22.3388C19.9946 24.683 16.8152 26 13.5 26ZM13.5 16.2778C12.9528 16.2778 12.411 16.17 11.9055 15.9606C11.4 15.7512 10.9406 15.4443 10.5537 15.0574C10.1668 14.6705 9.8599 14.2111 9.6505 13.7056C9.44111 13.2001 9.33333 12.6583 9.33333 12.1111C9.33333 11.5639 9.44111 11.0221 9.6505 10.5166C9.8599 10.0111 10.1668 9.55174 10.5537 9.16483C10.9406 8.77792 11.4 8.47101 11.9055 8.26161C12.411 8.05222 12.9528 7.94444 13.5 7.94444C14.6051 7.94444 15.6649 8.38343 16.4463 9.16483C17.2277 9.94623 17.6667 11.006 17.6667 12.1111C17.6667 13.2162 17.2277 14.276 16.4463 15.0574C15.6649 15.8388 14.6051 16.2778 13.5 16.2778Z" stroke="white" stroke-linecap="round" stroke-linejoin="round"/>
</svg>
